<?xml version="1.0" encoding="utf-8"?>
<svg width="14" height="14" viewBox="0 0 14 14" fill="none" xmlns="http://www.w3.org/2000/svg">
  <g>
    <g>
      <path d="M8.16667 2.38419e-07L3.5 2.38419e-07C1.16667 2.38419e-07 2.38419e-07 1.16667 2.38419e-07 3.5L2.38419e-07 11.0833C2.38419e-07 11.4042 0.2625 11.6667 0.583333 11.6667L8.16667 11.6667C10.5 11.6667 11.6667 10.5 11.6667 8.16667L11.6667 3.5C11.6667 1.16667 10.5 2.38419e-07 8.16667 2.38419e-07L8.16667 2.38419e-07ZM8.75 4.9375L2.91667 4.9375C2.6775 4.9375 2.47917 4.71084 2.47917 4.4375C2.47917 4.16416 2.6775 3.9375 2.91667 3.9375L8.75 3.9375C8.98917 3.9375 9.1875 4.16416 9.1875 4.4375C9.1875 4.71084 8.98917 4.9375 8.75 4.9375L8.75 4.9375ZM7 7.85417L2.91667 7.85417C2.6775 7.85417 2.47917 7.6275 2.47917 7.35417C2.47917 7.08083 2.6775 6.85417 2.91667 6.85417L7 6.85417C7.23917 6.85417 7.4375 7.08083 7.4375 7.35417C7.4375 7.6275 7.23917 7.85417 7 7.85417L7 7.85417Z" fill="#000000" fillRule="evenodd" transform="translate(1.167 1.167)" />
    </g>
  </g>
</svg>