<?xml version="1.0" encoding="utf-8"?>
<svg width="143.681" height="19" viewBox="0 0 143.681 19" fill="none" xmlns="http://www.w3.org/2000/svg">
  <path d="M5.52225 0L13.4872 0C16.9469 0 19.0095 2.0615 19 5.5195L19 13.4805C19 16.9385 16.9374 19 13.4777 19L5.52225 19C2.06253 19 0 16.9385 0 13.471L0 5.5195C0 2.0615 2.06253 0 5.52225 0L5.52225 0ZM10.8259 14.63C11.092 14.63 11.3011 14.421 11.3011 14.155L11.3106 14.155L11.3106 5.453C11.3106 4.8545 10.8259 4.37 10.2271 4.37L8.78238 4.37C8.18358 4.37 7.69884 4.8545 7.69884 5.453L7.69884 14.155C7.69884 14.421 7.90794 14.63 8.17407 14.63L10.8259 14.63L10.8259 14.63ZM6.28263 14.63C6.54876 14.63 6.75787 14.421 6.75787 14.155L6.75787 9.158C6.75787 8.892 6.54876 8.683 6.28263 8.683L4.23911 8.683C3.64031 8.683 3.15557 9.1675 3.15557 9.766L3.15557 14.155C3.15557 14.421 3.36468 14.63 3.63081 14.63L6.28263 14.63L6.28263 14.63ZM15.3787 14.63C15.6448 14.63 15.8539 14.421 15.8539 14.155L15.8539 11.3905C15.8539 10.792 15.3692 10.3075 14.7704 10.3075L12.7268 10.3075C12.4607 10.3075 12.2516 10.5165 12.2516 10.7825L12.2516 14.155C12.2516 14.421 12.4607 14.63 12.7268 14.63L15.3787 14.63L15.3787 14.63ZM30.5023 14.84C31.3343 15.0747 32.193 15.192 33.0783 15.192C34.1023 15.192 34.9716 15.0373 35.6863 14.728C36.401 14.4187 36.9343 14.0027 37.2863 13.48C37.649 12.9467 37.8303 12.36 37.8303 11.72C37.8303 10.9733 37.633 10.3813 37.2383 9.944C36.8543 9.50667 36.3903 9.18667 35.8463 8.984C35.3023 8.78133 34.6036 8.57867 33.7503 8.376C32.929 8.19466 32.3156 8.01333 31.9103 7.832C31.5156 7.64 31.3183 7.352 31.3183 6.968C31.3183 6.584 31.489 6.27467 31.8303 6.04C32.1823 5.80533 32.721 5.688 33.4463 5.688C34.481 5.688 35.5156 5.98133 36.5503 6.568L37.3503 4.6C36.8383 4.28 36.241 4.03467 35.5583 3.864C34.8756 3.69333 34.177 3.608 33.4623 3.608C32.4383 3.608 31.569 3.76267 30.8543 4.072C30.1503 4.38133 29.6223 4.80267 29.2703 5.336C28.9183 5.85867 28.7423 6.44533 28.7423 7.096C28.7423 7.84267 28.9343 8.44 29.3183 8.888C29.713 9.336 30.1823 9.66133 30.7263 9.864C31.2703 10.0667 31.969 10.2693 32.8223 10.472C33.377 10.6 33.8143 10.7173 34.1343 10.824C34.465 10.9307 34.7316 11.0747 34.9343 11.256C35.1476 11.4267 35.2543 11.6453 35.2543 11.912C35.2543 12.2747 35.0783 12.568 34.7263 12.792C34.3743 13.0053 33.8303 13.112 33.0943 13.112C32.433 13.112 31.7716 13.0053 31.1103 12.792C30.449 12.5787 29.8783 12.296 29.3983 11.944L28.5183 13.896C29.0196 14.28 29.681 14.5947 30.5023 14.84L30.5023 14.84ZM41.9214 12.808L43.1214 11.624L45.8414 15L48.8654 15L44.9614 10.04L48.5454 6.392L45.5694 6.392L41.9214 9.848L41.9214 3.128L39.4254 3.128L39.4254 15L41.9214 15L41.9214 12.808L41.9214 12.808ZM54.1439 15.528L58.0319 6.392L55.6319 6.392L53.1999 12.232L50.7839 6.392L48.2079 6.392L51.9359 15.064L51.9039 15.144C51.7333 15.528 51.5413 15.8 51.3279 15.96C51.1146 16.1307 50.8373 16.216 50.4959 16.216C50.2506 16.216 49.9999 16.168 49.7439 16.072C49.4986 15.976 49.2799 15.8427 49.0879 15.672L48.1759 17.448C48.4533 17.6933 48.8106 17.8853 49.2479 18.024C49.6853 18.1627 50.1279 18.232 50.5759 18.232C51.3973 18.232 52.0959 18.0293 52.6719 17.624C53.2586 17.2187 53.7493 16.52 54.1439 15.528L54.1439 15.528ZM66.3144 6.824C65.6638 6.45067 64.9384 6.264 64.1384 6.264C62.9544 6.264 62.0531 6.63733 61.4344 7.384L61.4344 6.392L59.0504 6.392L59.0504 18.104L61.5464 18.104L61.5464 14.088C62.1758 14.7813 63.0398 15.128 64.1384 15.128C64.9384 15.128 65.6638 14.9467 66.3144 14.584C66.9758 14.2107 67.4931 13.6933 67.8664 13.032C68.2398 12.36 68.4264 11.5813 68.4264 10.696C68.4264 9.81067 68.2398 9.03733 67.8664 8.376C67.4931 7.704 66.9758 7.18667 66.3144 6.824L66.3144 6.824ZM65.2744 12.44C64.8691 12.8667 64.3464 13.08 63.7064 13.08C63.0664 13.08 62.5384 12.8667 62.1224 12.44C61.7171 12.0027 61.5144 11.4213 61.5144 10.696C61.5144 9.97067 61.7171 9.39466 62.1224 8.968C62.5384 8.53067 63.0664 8.312 63.7064 8.312C64.3464 8.312 64.8691 8.53067 65.2744 8.968C65.6904 9.39466 65.8984 9.97067 65.8984 10.696C65.8984 11.4213 65.6904 12.0027 65.2744 12.44L65.2744 12.44ZM73.6813 6.584C73.18 6.79733 72.78 7.112 72.4813 7.528L72.4813 6.392L70.0973 6.392L70.0973 15L72.5933 15L72.5933 10.936C72.5933 10.136 72.796 9.53867 73.2013 9.144C73.6066 8.73867 74.1666 8.536 74.8813 8.536C74.9773 8.536 75.164 8.54667 75.4413 8.568L75.4413 6.264C74.78 6.264 74.1933 6.37067 73.6813 6.584L73.6813 6.584ZM78.4953 14.568C79.2206 14.9413 80.0366 15.128 80.9433 15.128C81.85 15.128 82.6606 14.9413 83.3753 14.568C84.09 14.184 84.65 13.656 85.0553 12.984C85.4606 12.312 85.6633 11.5493 85.6633 10.696C85.6633 9.84267 85.4606 9.08 85.0553 8.408C84.65 7.736 84.09 7.21333 83.3753 6.84C82.6606 6.456 81.85 6.264 80.9433 6.264C80.0366 6.264 79.2206 6.456 78.4953 6.84C77.7806 7.21333 77.2206 7.736 76.8153 8.408C76.41 9.08 76.2073 9.84267 76.2073 10.696C76.2073 11.5493 76.41 12.312 76.8153 12.984C77.2206 13.656 77.7806 14.184 78.4953 14.568L78.4953 14.568ZM82.5113 12.44C82.106 12.8667 81.5833 13.08 80.9433 13.08C80.3033 13.08 79.7753 12.8667 79.3593 12.44C78.9433 12.0027 78.7353 11.4213 78.7353 10.696C78.7353 9.97067 78.9433 9.39466 79.3593 8.968C79.7753 8.53067 80.3033 8.312 80.9433 8.312C81.5833 8.312 82.106 8.53067 82.5113 8.968C82.9273 9.39466 83.1353 9.97067 83.1353 10.696C83.1353 11.4213 82.9273 12.0027 82.5113 12.44L82.5113 12.44ZM87.0623 14.68C87.361 14.9787 87.729 15.128 88.1663 15.128C88.6036 15.128 88.9716 14.9787 89.2703 14.68C89.569 14.3813 89.7183 14.008 89.7183 13.56C89.7183 13.1013 89.569 12.7333 89.2703 12.456C88.9716 12.168 88.6036 12.024 88.1663 12.024C87.729 12.024 87.361 12.168 87.0623 12.456C86.7636 12.7333 86.6143 13.1013 86.6143 13.56C86.6143 14.008 86.7636 14.3813 87.0623 14.68L87.0623 14.68ZM104.24 15L107.904 3.8L105.424 3.8L102.816 11.736L100.256 3.8L97.8564 3.8L95.2164 11.672L92.6884 3.8L90.0004 3.8L93.6804 15L96.4484 15L98.9924 7.416L101.456 15L104.24 15L104.24 15ZM115.079 7.224C114.364 6.584 113.34 6.264 112.007 6.264C111.313 6.264 110.636 6.35467 109.975 6.536C109.324 6.71733 108.764 6.97333 108.295 7.304L109.191 9.048C109.5 8.80266 109.873 8.61067 110.311 8.472C110.759 8.32267 111.212 8.248 111.671 8.248C112.332 8.248 112.828 8.39733 113.159 8.696C113.489 8.984 113.655 9.4 113.655 9.944L111.671 9.944C110.412 9.944 109.479 10.1733 108.871 10.632C108.273 11.0907 107.975 11.72 107.975 12.52C107.975 13.0213 108.103 13.4693 108.359 13.864C108.615 14.2587 108.983 14.568 109.463 14.792C109.953 15.016 110.529 15.128 111.191 15.128C112.471 15.128 113.345 14.728 113.815 13.928L113.815 15L116.151 15L116.151 10.088C116.151 8.808 115.793 7.85333 115.079 7.224L115.079 7.224ZM112.951 13.16C112.62 13.352 112.241 13.448 111.815 13.448C111.377 13.448 111.031 13.3573 110.775 13.176C110.529 12.984 110.407 12.728 110.407 12.408C110.407 11.736 110.919 11.4 111.943 11.4L113.655 11.4L113.655 12.28C113.516 12.664 113.281 12.9573 112.951 13.16L112.951 13.16ZM118.41 3.128L120.906 3.128L120.906 15L118.41 15L118.41 3.128L118.41 3.128ZM123.222 3.128L125.718 3.128L125.718 15L123.222 15L123.222 3.128L123.222 3.128ZM136.419 11.4C136.451 10.984 136.467 10.76 136.467 10.728C136.467 9.832 136.269 9.048 135.875 8.376C135.491 7.69333 134.957 7.17067 134.275 6.808C133.592 6.44533 132.829 6.264 131.987 6.264C131.123 6.264 130.339 6.456 129.635 6.84C128.941 7.21333 128.392 7.74133 127.987 8.424C127.592 9.096 127.395 9.85333 127.395 10.696C127.395 11.5493 127.597 12.312 128.003 12.984C128.408 13.656 128.984 14.184 129.731 14.568C130.477 14.9413 131.336 15.128 132.307 15.128C133.864 15.128 135.048 14.664 135.859 13.736L134.531 12.296C134.232 12.584 133.907 12.7973 133.555 12.936C133.213 13.064 132.819 13.128 132.371 13.128C131.72 13.128 131.176 12.9733 130.739 12.664C130.301 12.3547 130.024 11.9333 129.907 11.4L136.419 11.4L136.419 11.4ZM130.579 8.632C130.963 8.312 131.437 8.152 132.003 8.152C132.557 8.152 133.027 8.31733 133.411 8.648C133.795 8.968 134.029 9.4 134.115 9.944L129.875 9.944C129.96 9.38933 130.195 8.952 130.579 8.632L130.579 8.632ZM142.769 15C143.131 14.904 143.435 14.7653 143.681 14.584L143.009 12.824C142.731 13.0373 142.395 13.144 142.001 13.144C141.659 13.144 141.393 13.048 141.201 12.856C141.019 12.6533 140.929 12.3707 140.929 12.008L140.929 8.504L143.073 8.504L143.073 6.584L140.929 6.584L140.929 4.488L138.433 4.488L138.433 6.584L137.105 6.584L137.105 8.504L138.433 8.504L138.433 12.04C138.433 13.0533 138.71 13.8213 139.265 14.344C139.83 14.8667 140.625 15.128 141.649 15.128C142.043 15.128 142.417 15.0853 142.769 15L142.769 15Z" fill="#000000" fill-rule="evenodd" />
</svg>